<mxfile host="65bd71144e">
    <diagram id="5DfwSMmlrQ2DYcHCKKRp" name="ページ1">
        <mxGraphModel dx="1060" dy="804" grid="1" gridSize="10" guides="1" tooltips="1" connect="1" arrows="1" fold="1" page="1" pageScale="1" pageWidth="827" pageHeight="1169" math="0" shadow="0">
            <root>
                <mxCell id="0"/>
                <mxCell id="1" parent="0"/>
                <mxCell id="14" value="" style="shape=image;verticalLabelPosition=bottom;labelBackgroundColor=default;verticalAlign=top;aspect=fixed;imageAspect=0;image=data:image/png,iVBORw0KGgoAAAANSUhEUgAAAhMAAAFGCAYAAADQCB39AAAKn2lDQ1BJQ0MgUHJvZmlsZQAASImVlgdUk8kWx+f70kNCCyCdUEOR3gJICT106WAjJIGEEkMggIidxRVcUVREsCzIUhVclSJrQUCxLYqKXRdEBJR1sWDD8j7gENx957133s2ZzO/c786de+fMnPMHgIxnCYUpsCwAqYIMUaiPOzU6JpaKGwMQgJEfDhBZ7HQhIyQkACA2N//d3t1GohG7aTqd69+//1eT43DT2QBAIQjHc9LZqQifQMZTtlCUAQCqFPHrZmUIp/kUwgoipECEr09z4iw/neb4Wf4wExMe6gEAmgQAnsRiiRIBICkjfmomOxHJQ6IjbCHg8AUI8xB2SU1dyUG4FmFDJEaI8HR+evx3eRL/ljNekpPFSpTwbC8zhvfkpwtTWKv+z+P435aaIp7bwwBMNyDyDZ2ekTO7m7zSX8KC+KDgOeZzZuJnmCf2jZhjdrpH7BxzWJ7+krUpQQFznMD3ZkryZDDD55ib7hU2x6KVoZK9EkQejDlmieb3FSdHSPw8LlOSP4cXHjXHmfzIoDlOTw7zn4/xkPhF4lBJ/VyBj/v8vt6S3lPTv+uXz5SszeCF+0p6Z83XzxUw5nOmR0tq43A9veZjIiTxwgx3yV7ClBBJPDfFR+JPzwyTrM1ALuT82hDJGSax/ELmGHiBSGAFbAAdWGRwszOmG/BYKVwl4ifyMqgM5GVxqUwB22wh1crCyhaA6Xc6ew3e3J15f5ASft7HQ+6vbRECHfO+hG0AtEUDIFM776NlAyCvAkDnebZYlDnrQ0//YQARyAAFoAI0gS4wBKZIbXbACbghdfqBYBAOYsBywAY8kApEIAvkgg0gHxSC7WA3KAMHwSFQC46AY6AVnALnwAVwBVwH/eABGADD4AWYAO/AFARBOIgMUSAVSAvSh0wgK4gOuUBeUAAUCsVAcVAiJIDEUC60CSqEiqEyqAKqg36FTkLnoEtQH3QPGoTGoNfQJxgFk2AFWAM2gM1hOsyA/eFweBmcCKfBOXAevA0uhSvhw3ALfA6+AvfDA/ALeBIFUFIoJZQ2yhRFR3mgglGxqASUCLUWVYAqQVWiGlHtqB7UTdQAahz1EY1FU9BUtCnaCe2LjkCz0Wnoteit6DJ0LboF3Y2+iR5ET6C/YsgYdYwJxhHDxERjEjFZmHxMCaYa04w5j+nHDGPeYbFYJSwNa4/1xcZgk7CrsVux+7FN2A5sH3YIO4nD4VRwJjhnXDCOhcvA5eP24g7jzuJu4IZxH/BSeC28Fd4bH4sX4DfiS/D1+DP4G/gR/BRBlqBPcCQEEziEVYQiQhWhnXCNMEyYIsoRaURnYjgxibiBWEpsJJ4nPiS+kZKS0pFykFosxZdaL1UqdVTqotSg1EeSPMmY5EFaShKTtpFqSB2ke6Q3ZDLZgOxGjiVnkLeR68hd5MfkD9IUaTNppjRHep10uXSL9A3plzIEGX0ZhsxymRyZEpnjMtdkxmUJsgayHrIs2bWy5bInZe/ITspR5CzlguVS5bbK1ctdkhuVx8kbyHvJc+Tz5A/Jd8kPUVAUXYoHhU3ZRKminKcMK2AVaApMhSSFQoUjCr0KE4ryijaKkYrZiuWKpxUHlFBKBkpMpRSlIqVjSreVPi3QWMBYwF2wZUHjghsL3iurKbspc5ULlJuU+5U/qVBVvFSSVXaotKo8UkWrGqsuVs1SPaB6XnVcTUHNSY2tVqB2TO2+OqxurB6qvlr9kPpV9UkNTQ0fDaHGXo0ujXFNJU03zSTNXZpnNMe0KFouWnytXVpntZ5TFakMagq1lNpNndBW1/bVFmtXaPdqT+nQdCJ0Nuo06TzSJerSdRN0d+l26k7oaekF6uXqNejd1yfo0/V5+nv0e/TfG9AMogw2G7QajNKUaUxaDq2B9tCQbOhqmGZYaXjLCGtEN0o22m903Rg2tjXmGZcbXzOBTexM+Cb7TfoWYhY6LBQsrFx4x5RkyjDNNG0wHTRTMgsw22jWavbSXM881nyHeY/5VwtbixSLKosHlvKWfpYbLdstX1sZW7Gtyq1uWZOtva3XWbdZv7IxseHaHLC5a0uxDbTdbNtp+8XO3k5k12g3Zq9nH2e/z/4OXYEeQt9Kv+iAcXB3WOdwyuGjo51jhuMxx7+cTJ2SneqdRhfRFnEXVS0actZxZjlXOA+4UF3iXH52GXDVdmW5Vro+cdN147hVu40wjBhJjMOMl+4W7iL3Zvf3Ho4eazw6PFGePp4Fnr1e8l4RXmVej711vBO9G7wnfGx9Vvt0+GJ8/X13+N5hajDZzDrmhJ+93xq/bn+Sf5h/mf+TAOMAUUB7IBzoF7gz8GGQfpAgqDUYBDODdwY/CqGFpIX8thi7OGRx+eJnoZahuaE9YZSwFWH1Ye/C3cOLwh9EGEaIIzojZSKXRtZFvo/yjCqOGog2j14TfSVGNYYf0xaLi42MrY6dXOK1ZPeS4aW2S/OX3l5GW5a97NJy1eUpy0+vkFnBWnE8DhMXFVcf95kVzKpkTcYz4/fFT7A92HvYLzhunF2cMa4zt5g7kuCcUJwwmuicuDNxjOfKK+GN8z34ZfxXSb5JB5PeJwcn1yR/S4lKaUrFp8alnhTIC5IF3Ss1V2av7BOaCPOFA2mOabvTJkT+oup0KH1ZeluGAiKIrooNxT+IBzNdMsszP2RFZh3PlssWZF9dZbxqy6qRHO+cX1ajV7NXd+Zq527IHVzDWFOxFlobv7Zzne66vHXD633W124gbkje8PtGi43FG99uitrUnqeRtz5v6AefHxrypfNF+Xc2O20++CP6R/6PvVust+zd8rWAU3C50KKwpPDzVvbWyz9Z/lT607dtCdt6i+yKDmzHbhdsv73DdUdtsVxxTvHQzsCdLbuouwp2vd29YvelEpuSg3uIe8R7BkoDStv26u3dvvdzGa+sv9y9vGmf+r4t+97v5+y/ccDtQONBjYOFBz/9zP/5boVPRUulQWXJIeyhzEPPqiKren6h/1JXrVpdWP2lRlAzUBta211nX1dXr15f1AA3iBvGDi89fP2I55G2RtPGiialpsKj4Kj46PNf4369fcz/WOdx+vHGE/on9jVTmgtaoJZVLROtvNaBtpi2vpN+JzvbndqbfzP7reaU9qny04qni84Qz+Sd+XY25+xkh7Bj/FziuaHOFZ0PuqK7bnUv7u4973/+4gXvC109jJ6zF50vnrrkeOnkZfrl1it2V1qu2l5t/t329+Zeu96Wa/bX2q47XG/vW9R35obrjXM3PW9euMW8daU/qL/vdsTtu3eW3hm4y7k7ei/l3qv7mfenHqx/iHlY8Ej2Uclj9ceVfxj90TRgN3B60HPw6pOwJw+G2EMvnqY//Tyc94z8rGREa6Ru1Gr01Jj32PXnS54PvxC+mBrP/1Puz30vDV+e+Mvtr6sT0RPDr0Svvr3e+kblTc1bm7edkyGTj9+lvpt6X/BB5UPtR/rHnk9Rn0amsj7jPpd+MfrS/tX/68Nvqd++CVki1owUQCEDTkgA4HUNAOQYACiIriAumdXRMwbNav8ZAv+JZ7X2jNkBULMegEhkTEuiA26IjEVYFhkhCIe7AdjaWjLmNO+MPp82xS4ArGjofvfcx1UV68E/bFa7f1f3P2cgyfq3+V9VwQN0W9gxgwAAAFZlWElmTU0AKgAAAAgAAYdpAAQAAAABAAAAGgAAAAAAA5KGAAcAAAASAAAARKACAAQAAAABAAACE6ADAAQAAAABAAABRgAAAABBU0NJSQAAAFNjcmVlbnNob3QlHUmyAAAB1mlUWHRYTUw6Y29tLmFkb2JlLnhtcAAAAAAAPHg6eG1wbWV0YSB4bWxuczp4PSJhZG9iZTpuczptZXRhLyIgeDp4bXB0az0iWE1QIENvcmUgNi4wLjAiPgogICA8cmRmOlJERiB4bWxuczpyZGY9Imh0dHA6Ly93d3cudzMub3JnLzE5OTkvMDIvMjItcmRmLXN5bnRheC1ucyMiPgogICAgICA8cmRmOkRlc2NyaXB0aW9uIHJkZjphYm91dD0iIgogICAgICAgICAgICB4bWxuczpleGlmPSJodHRwOi8vbnMuYWRvYmUuY29tL2V4aWYvMS4wLyI+CiAgICAgICAgIDxleGlmOlBpeGVsWURpbWVuc2lvbj4zMjY8L2V4aWY6UGl4ZWxZRGltZW5zaW9uPgogICAgICAgICA8ZXhpZjpQaXhlbFhEaW1lbnNpb24+NTMxPC9leGlmOlBpeGVsWERpbWVuc2lvbj4KICAgICAgICAgPGV4aWY6VXNlckNvbW1lbnQ+U2NyZWVuc2hvdDwvZXhpZjpVc2VyQ29tbWVudD4KICAgICAgPC9yZGY6RGVzY3JpcHRpb24+CiAgIDwvcmRmOlJERj4KPC94OnhtcG1ldGE+CqqGhqcAAEAASURBVHgB7Z15rDVJWcZ7LpeAAQVxUJxRQFADCkQWUQSCBlRGxkQRNSwaIGz+gcqgAaLiFnXwD4wEjYokREA0g1tEBpgBFyAwwYHgiAoZJCpmIIoLQtjn2r/+vufy3vqq9+V0n/O8SZ3a3q2erq56u07fcy86KakwGQEjYASMgBEwAkZgIAJHA+UsZgSMgBEwAkbACBiBCgEHE54IRsAIGAEjYASMwCgEHEyMgs/CRsAIGAEjYASMgIMJzwEjYASMgBEwAkZgFAIOJkbBZ2EjYASMgBEwAkbAwYTngBEwAkbACBgBIzAKAQcTo+CzsBEwAkbACBgBI+BgwnPACBgBI2AEjIARGIWAg4lR8FnYCBgBI2AEjIARcDDhOWAEjIARMAJGwAiMQsDBxCj4LGwEjIARMAJGwAg4mPAcMAJGwAgYASNgBEYh4GBiFHwWNgJGwAgYASNgBI4NgRGYA4G/+qu/qtQqT21867d+a0EyGQEjYASMwPYRuMj/gnz7F3EtIyBw+Pmf//nKHQURuYBBfTD+7M/+bMX/cz/3c1XuDyNgBIyAEdgeAg4mtnfNVuexgghyggcFCLlAIjqvAEIBCHJqi3wuGwEjYASMwLoRcDCx7uuzeu/Y/AkGFES0BRB1A5IeBxR1CLndCBgBI7BeBBxMrPfarN4zBQB/+Zd/WQUTUzj8bd/2bQUnHFPqnMIv6zACRsAIGIF6BPzXHPXYuKcBATb9v/7rv5580yeI4HQC/QQrJiNgBIyAEVg/Av5rjvVfo9V5yEYPsfHPQQoi9PXJ0K9O5vDNOo2AETACRuBCBHwycSEme99y0003FY973OOK97///b3HykavryF6C/cQwI5OKLBnMgJGwAgYgfUi4Hcm1nttZvOMYOKSSy4pbrzxxuLud797Zzts8JwWLPk+w9ynIJ0Hb0YjYASMgBGoRcDBRC00+9sxNJi46KKLqtMCfQ2xFELYXTKAWWpctmMEjIAR2BcE/DXHvlzJmcehAEL5zObOqOfrDv0WxZkOV4yAETACRmAVCDiYWMVlWL8TbOZs6rsgBTB+d2IX6NumETACRqAdAQcT7RgdPIc2c+W7AORhD3uYTyd2AbxtGgEjYAQ6IOBgogNIZvn8/9DYFRb8eSgnEz6d2NUVsF0jYASMQD0CDibqsXHPeQTW8L4CwYR/b8JT0ggYASOwTgQcTKzzuqzGK50E7PIrjgiG/IltLhsBI2AEjMBuEXAwsVv8bb0HArw3wU94m4yAETACRmBdCPjntNd1PRb15t/+7d8KfsOhif7kT/6kqdt9RsAIGAEjYAQKBxMHPAn065JtEDzwgQ9sY3G/ETACRsAIHDACDib28OKn7xWonr7E+Na3vrW4y13u0ojA2972tuKFL3xhI487jYARMAJG4LARcDCx0evPC5Hx/QEFDG3DiX8R8WVf9mXFpZde2ihy8cUXFwQUayHemzAZASNgBIzAuhBwMLGu69HLGwIIBQfK42Yb/6STX69cy19k9BpkYCZ4iuMLXS4aASNgBIzADhFwMLFD8MeYJjCoCw4IMrq+D9Hmg4KUGLi0yczVjw8OJuZC13qNgBEwAsMR8J+GDsdulZIEEQok+E+b0NhTCQKKeMqxi4ETSEB1AVTV6Q8jYASMgBHYCQIOJnYC+/RG2Wz5M09yNv+Tk5OqPIWlXf2Dr+i7xhXbXDYCRsAIGIF1IOBgYh3XYZQXPK3H0widSOg0YYqneTZz0q6Isfgrjl2hb7tGwAgYgWYEHEw047PqXjZ3ggg2Wp1GkEMKIKY4VUAnScFJZWDBD41F+YKmbcoIGAEjYAQ6IHBReRx+0oHPLCtD4J/+6Z+Ke97znpVXuXci9MuWuct70003FZdccklx4403Fne/+907jwydnHoQWCxJ2M2NcUkfbMsIGAEjYATqETiq7+rfw5Nj21F4G88cT59tPvUf6VmJvvr1lUTUgo4+eggm2NTZ3FPMVJ/iVCL6iD587+NnlB9SZiyMU2MaosMyRsAIGAEjMC8CvYMJNhKldIHndwBY+IdSbpNKbQzRLX+jbM4Wbam9XFvUQ5kx99lkc9/9Ywc95F3oHve4R+0pgb6OSMcS9T7qUY+K1U5l9OGj9HcSGsGEPWxNHRSNcMmiRsAIGAEjkEHgONPWqUkbX7r5qa5NIOXTrzbCl/4IEbwpwQOv+qQfPrWrT7Js7OkGFOXg04YYZSnDxyZGokyiXW2ykcslT96FpDvydtVBMJEjdELp+KvG8x9f/uVfXrzmNa+JTZ3LnISAL0kvenYW7sEI3nEO9RA1qxEwAkbACCyMwOBgQn7GjZPFX3Xl8FFWnU0i1ulXG+WUeIqXLH2U2TCxRR/l2A9PKiM5clEqo3Zy/IHgkf4cf+p3LoipFJ3/QBekAIk6SUGV9NHG+IZs1viJXM7fyvgEHwQq+DdXQAEO6McOZZMRMAJGwAisG4Hjse6x8UVSXZukNkRtCjFnwxuy6fWVG7M5y984RpXlO/o1TsqyBx8boviU009ZdWzEOmV4hpL0DpVvk5Ov+D31y5EEKIx97oCobYzuNwJGwAgYge4IDAom4kYXNy6Vc0+s9PG0CWmDFn+Tu114muRlD5v4PYU+2WvSFYMI8edy/OJkAl3CVXmT/pyupdt0HXVd8Xeoz+hCD/IOJJa+krZnBIyAERiHwNEQcRZ8UhtpU4QPfjZYtbF5aDNq0zOmH3skbHXxeYgtjQlZbCjldMHLphllwCW2NcnndO6yDVz156cEkdRJXQgMkOF0g4CKIMKBRBfkzGMEjIARWBcCx2PdiZti1JVrV1vXDUf80kudjbaJJKM8x4v9qTZs6crZSdu0ycZTC7Xhr8rIUW4ba6p/l/XoO4GRThnkE++xEDCIdH0Y4xwBhPDbEobCxrkRMAJGYGsIHA11mM0gHs9TZ+HW4h3L2NDiTk5SG7lkqsbkA70kSHlVafhAH5tZHWG/q66oA5mcnPzP9UX5OHba4VcCS/lFm3RG+bWXNT5OKggQCCCUFEioTr/4ph4r+HH9deohv9aOn/0zAkbACGwWgXJB70XlJnBCgpSn5XJzqPpzH+VTeSVHToqEvrStBDayVP3wwCt+chG2qcsHyiSR9Kft6q9rl5z4lMf2aEf9uTzK0E+dhDy5aTwCwpJ5wBxSoi6sx1uxBiNgBIyAEQCB475RULkYn4qkZT1lnzKEgvqQUdITIzkET0rRBn3wRr60nydf6U91xXoqpz7aZYOnafRBtKWUtkk28qGj3LyKOnsai3RRp6x61OVydwTAO2IuPDmxAGOdXHFtIPV3t2BOI2AEjIAREAKT/28OFuV0IdeGGRd3OUAf7cixwJdPlFU97Vd9SJ5uFGl9iM4hMsKBHB9UT3GhL4fFEJuWuRABcCcR6JFHcnAR0XDZCBgBI9ANgcmDiW5mzWUE1oOAgkudVsgzgryuJ12ScW4EjIAROEQEHEwc4lX3mBsRqAsufGrRCJs7jYAROGAEHEwc8MX30NsR4GsQUvqViE8t2rEzhxEwAoeDgIOJA7nW6bsBDDt9V6MJCsn3kUGf5KLuvjqi7K7LPrXY9RWwfSNgBNaIgIOJNV6VGXxiU+edAHJeciWHur7oCb9+Jr1vMKAXSvVXLejSX8poc66c2dgH49BYyCP5K5GIhstGwAjsPQJD/0K2XCzPiPJ3/ZDyquKPTgh813d918m1117biXcME9esnNBnVJSBwelvcpzpyFTgHXp9sZvKoi+dRxmzm2liLCTGGpPGmY5/MwOzo0bACBiBFgSOykVvEtKb8HpC44lT5ZyBtv6cTJ82bKf2ebJO2/robOMd+pR93XXXFY94xCOKMqgoyqCizcyk/fy1wpyYNDlbbrzVyUgTz5b6uP6k8p6rEuMjgS/3h3+Rc0tX074aASPQB4FRwYQ2IRbQ8qnrArvlE9kFbWrgmJt+6VB7U67FuolHfdId9evP/MQzdZ6+pNdX/9VXX118+7d/+6JBBZscG14kNr06rMGTvlxgJhnyPqRrRC69qY6om7L86GNnaV75THDB/QHOzEswJ/EPzoS1MFjaR9szAkbACEyBwHFfJXHRY0GMpAWeBTIXXGiDYNOFqLO49iXJyU6djrr2vva68AuXNNeYu+gQD0EF6bLLLiuuuOKK6tRCfVPk+KR3FrhOESf6CLrIGYswll3kkFEfGyUEv3L15eZAxXT+Q3bhpyxblFMdzLVoSzJR35rLjIkkEl6Mi7HoXlJgp37xj83XhNc///M/F3e7293GDsnyRsAIrAmBcoEeROWidyqnMnm5gVRJbadMoQBPjura4UVf1JnW6/RFnVE+x6+2KKO2tjzVXV7jNpHT/i/5ki858x07sjGVQcXJNddcc8o/tICP0a9yczuJfjPu2I8d6sIDfpXpkzxtTXKpHuqQ5PCBFHWoL/JVQuUHdkn7QoyV8TMmMIiJdtJYkm5s7ZJe+9rXntz+9rc/ecc73rFLN2zbCBiBiRE4KheuUaQnHnKeplRHKeWU9MSlXP3w8nSWttMvPbGvjlf6huSyUy68F/jBkbT6U934hYyIerkBqLraHB/1RCwn4zhoS+viU65TppSPeh1eklUOr1Jso4wO9YEriZOTLeCrsbTljI9xlRv9mXctkOP6kMZ+JSK8OP3pel3a/O7b/5KXvKT6Cu+pT31q8YAHPKCvuPmNgBFYMwJDg5NyATwpF6gTPemQqyydaR1+5NQueeWSizm89EeinrbFfpWRlS3asN1E0VaUbbIX+aS7zY74lNedTEx1IiE7jKOci6qe4Dt1cuEZ+2GMdV1zKYjXMpYlh16R7KhOjk3ZlS+xX7blHznp0Eg4gUdMau+KB9hJfmkcn//851e2f/3Xf72ru+YzAkZgQwh8fmfp6DSbRrqpIKrNhEWKpE1CammDR0SdhY28idJ+6qnuOnl4o3wXuRxP1FFnS+3I53SoP5enwcTUQYRs4heYR9L11Bij/7GMDLK6zmlfrMcycuhGlnbVZbdqOP8R5dIy/GpDH+kQiXGDA3iAqZLwacMFWcm08Y7BF90k7DGfb3nLW56UJyxjVFrWCBiBFSPQ+0erdOzMsSwJUltVKT/UXi5wBSkl+mnn+LZccNLu2jp2+spIGbIk+ab2thz+rjLiU96mW/0XX3xx8ZGPfKR64fLZz3528fCHP1xdk+WpT+BPgsBF5aqh/ICfttguPnJSqhPZVE680ksuncpjn3TSF/s5nufrDYivVtBb3ldR9CDLwov7IlK5iVdV9cc+2sTP/Rdxjnx9yrrOujZR9ta3vnXxyU9+8rRJ9vBR5dNOF4yAEdgmAkMDHZ44oJhT5mmkXCCqvtyH+Olr4ktl0Rtl0/6meptPdbLY62qzD29qb6kfrUrtbqWew7brddnKGKfwU/cI91W5Gp1JKYbU4elzD+Z8lF7poo4fkZ7znOecfMEXfMHJW9/61qqPfvlInvJHWZeNgBHYBgJnz7x7+MyikRILQ9vilJNL9aR1LVhpe5f6UFkWuC6LHDzY6MLbxV/z5BFgXulagrXxzuMUW4VXGlgIS3IFAVGuaxn9yJO30dOe9rSTSy655OQf/uEfzrBGH3xNz0DjihHYFAKDvubgiFS/RVAuJtWRM8ec5cJQJdqaKB696q8B4C8XkyaxXn3yp5fQeeausvBBjNtkBNaOgO47fcUR/WUOd73/mPd87YRMGUhUedRVV/6BH/iBogwmql95vdOd7nTKhj58IscH9JqMgBHYFgK9g4k4PG5+kRcAIeHcCKwfgbiBy1vu4baAQu9bEEQoOJF8l5xfeOX9iTe/+c0XsI/VfYFCNxgBI7AYAsdjLO1DAPGe97ynuOqqq6onpq/7uq8btECOwdCyRmApBBRAYC/3IECA0ESSHxpIoPvVr3518dGPfjRrRsGJTk5UzzK70QgYgXUhsKkvZSZ2tlwUq+98yytyUj6RTax9G+oOddzbuDrjvOTaMsfLoP90njPXqZP6XHt4kUXf3ISNQ74n58bX+o3AHAiM+pqjvOE3SXrCIi8X1daj3TkHqSdE/JiT4p9WYgd70XabfT0lKu/rK3JDZfvaMv85BPjVTBHXt9ykq2rbtZZMzDV/lrqG2OGEolz0ohsuGwEjsFIEDi6Y0CLF9WBxXWpxbLr+8kF5Ey99BAExEKBNL7DNtfhijw1lqH42tvLpthiykTE+U38E0jnSX8M5CeYlL0pz/ZYk3Q/Kl7RtW0bACPRDYNQ7E/1M7ZabhVUbrp7S1rKxNS2W9OFn9JUy44lyjK3PYq+NRnlqI3e1+uiP8vhJ4BbHEPvxgUQ/eSQ2sSbZyOvyWQTq8D7L1VzjevSdW80a+/ViG4pzvZ8GcxsBI7AEAgdxMsFCpEVpLacRLNLaOOsWStrZENo2hbYjaE4FGLcIfcikwUGTHXyp81N6lctvxkcZ+20nGpJp8kH6h+T40kV3V74hPmxRhnkCpXNlqbEwLyDlVcUfRsAIrA6BvQ4m2BgIIrRBrPEJt24T1eKpvG7mqF95HV9sFy5dNwj4IW3G2Opqb87NCL/kW+Vg+aGnaPmqdvjwJQZV6iOPv3eyxnkSfV2yvOuvp3Td2oLRJTGxLSNgBDIIlDfpXlK5IfDmVpUob4nwt4vPkY9yGRx0Gma50XbmRWHqC3bQ0UbwIUvqwt+mL9efjhlbdZTy1vG5/RwC4MU9tGvCh6brumv/bN8IGIGTk707meBJZu2nEZmYrmrCd1K58Vapjo92nQwor2vL6ch9xZHjU5t8ok6ZJIr21aY82oEvNy500S6KuinrxCD+4qp40xx+UpNPqYzr9QjMeapUb/XCHl1P5RdyuMUIGIFdI3C8lAMs8hB5blOpOkd+oFsLYPkks/pNRZiAhxZK5XVQSIb+lJd62pbqiRt82hfr2JEtNnQCNDb06KuwjnIq40f5ZKtqo1/SI/0SahoLvuGLfERGZckplz7n/RHgmqyBmH++nmu4EvbBCOQRmP1kggWAhQBi8Ye06LPh06b2qnPkB/am1jnSpUZxNlLw6Br8MD7SEOoji0+kJizRl/YjA9E+J2GbICcNQKLNuX2ItvaxzNzUPbrL8TGn8KU8St6lG7ZtBIxAAwKzBRMsAAoicgsS/eLpupE2jGPTXeAw98a3lA0uxNxj2fTF3pDzu375UlAxdx1MCA3nRmCdCMwSTPDUSCDRJUgQLxtQPBZfJ1z2yggcDgJrCSZAfE2+HM4M8EiNQHcEjrqzdufsGkigkWCCIIKnD5LJCBgBI2AEjIAR2BYCkwcTBAecMpB3Jfg5xeAo02QEjIARiAjoIYN1wmQEjMA6EZg8mOBUYsgb4ApCtHCsEy57ZQQOBwE2b9+Ph3O9PVIjMAaBSYMJLTx9TiVS5/XSZtruuhEwAssiMOShYC4PfSoxF7LWawSmQWCWYGKoa2tavIaOwXJGYJ8QWENwvwYf9umaeixGYA4EJg0meHrwE8Qcl8k6jcDyCOiEUSeOy3twziL2eafKZASMwHoRmDSYYJhjFx6fTqx3stizw0OAh4Ox9/QY1GTbDyljULSsEZgfgUmDCd3wWgD6uq//w9BXzvxGwAjMgwDB/S6/ZtCvcM4zOms1AkZgKgQmDSZwauiTDEeqBCEKSKYaoPUYASMwHAHuyy4/PjfcQr0ktlkPyE1GwAisG4Hjqd3T70WwCJC6Ek8/yPaR6arbfEbACIxDQKcTS23sPFhg07+KO+66WdoILIXALcrF4eemNHbXu961UvekJz2pyrsEBxxlIveyl72skvGHETAC60FA9zCbO2Xu1bnpq77qq6qHiyc+8Ylzm7J+I2AEJkBg8pMJfFJ80vY0w9MHgQQLlN/WnuBqWoURmAkB3dPcr3P/906tCbI505Cs1ggYgQkRmOUffck/FgMFFAQM+ksNXrQkkIB29X1sZdwfRsAI9EKAjR6a6ytJ6ffXG70ui5mNwM4ROJrTA4IJnmJYGAgkPvzhDxe/+Zu/WZVpI/npY84rYN1GYFoEdC+z6euBYAoL6OI/g7JOYMNkBIzAthCY9WQiheJNb3pTcdlllxWf+tSn0i7XjYAR2BACOnXUV5TkQ0m6fEo5FEHLGYHdIzDrycTuh2cPjIARmAMBAgCdIHBK0fekAnkSpxGQA4k5rpJ1GoHlEPDJxHJY25IR2DkCfJ2g95gUDIx1Sjr1tUd8P4qy2mVH9gkgIIIKkxEwAttGwMHEtq+fvTcCnRDIbfhTBRPRAeyQ6n7NVi9hO4CIqLlsBLaPwPHQIfzrv/5r8Z73vKeX+Lvf/e7i5ptvLq6++upecjA/6EEPKm5/+9v3lrOAETh0BNi4dRowxTsOTXiin2QyAkbgsBAYfDLxkpe8pLjiiit6ofW5z32u+MQnPlHc9ra37SUHMy9vfuM3fmNvOQsYgUNFYMkg4lAx9riNgBE4h8DgYGIIgGv4aw5eFOt6vKujWOVxzBzlQm1PYcjm5CvhmT905Lwr+zMPz+prEOC6M88h5udcvwlRY97NRsAIHCACR/s4ZjZPbaRNb5nD00ZpsBBlYrlJT9/NXL6TI9tXXr4gn/qvPuf7hwDXm/lO4roTNJPGzgHNx/1DzCMyAkZgKgSOp1K0Rj0soiyEkPJYpi230IqXl8ikQ22VspYP6SVHh/7sDV2kNoo8fNetl9ba5Lr0y7cuvObZBgJcU+YJOTRFAFEpOv+RmzO5IFf2o6zK+Nf1hCRnT3qcGwEjsE4E9jqYEOTp5qy6cvEpV7sWR+pq63JKAC+yCgSivGz0yWW7i4x8hhf78kWyPLXO/b8VZMv5vAhojumaK2gdY1W6Uh117ZGvaZ429UmH7i14+f2JGBRhXz7Q30Wf9Do3AkZgfgT2NpjQwiMIY52y6jo5iIsTfdS1uKW5dDblyKNHspGX9rq+yKcyvOjrQpGPcqwjz4Zj2jYCzId4EjFFECFE0vlCu+af+qjn5rV0NOXSlfKoXTYYUxr40qevcFJ5142AEdgtAnsbTLDwkFikIMoxZzHmySdH8LJYKsFDuQ+Jnxx9JHzBLtRlU4efrzjQodTHB/PuFwKaP+QQc6puDlcMIz5kAxW534ygH/tQ5K0azn9EHrVr/ktW7fDSp1Mz+sULj/iVS865ETAC60DgeB1uzOtF02JHHxt1Stq8tXjp2DXly9WlTzlPU9hBV5/Fn8W0S9CR8wF7OdncxpCTd9t6EOBaMhfIIeYR15Z8apKNqDf3zg58JOZ4nR/0p31pXXZ0r6jOeOt4xePcCBiB9SBwEMEEi1K6sGmxqluwtEjSTzCg72/R00Tq1+KoHD11tnL60MMiHmXQJX05mdiGfFfeKOfyuhBQIIpXzIW5ggiNOs432uIcUl/T3IIfPvFKR9omezGXLeV9Au+ox2UjYASWR+BoeZPLWGTBI0XSIhXb0rIWSi2KLOaQFse2RZF+2SEn5Z7sUruxjg8EO8iKVFau9lwOj/yN/ejt60uUd3k5BLiGnIZxzbiWbKwKaJfyAh84ydJ8whfK5DmiD0rnntp1L1VMNR/S7UCiBiA3G4GVIrCZYEKLTBccWcxiQkb1Nnn4tGCS8yRIogzR34XgjzJd5dDNWHOLqfTFp9XUF/HU2atrT/W4vhsEuH4EETo520UQwfzDjzhXVCanLyXdn7k+eJEjkK3rhwcdJPFQNhkBI7ANBI6XdPNVr3pVcckllxR///d/X9zrXvfqZZqFhQW2bUFCKQuXKFdmM256Qtdiply6qJPwhdRE2IVX9qMM7TlSu/I6HvrRJ93ik5xytcs2T5m5IEV8zneHANdIT+5c17m/zqgbKX5AmkPccyL8Unuce5pf6hN/mtMv/WkfdfrQKx4FVDletxkBI7AyBMq3pxehq6666qQc+sm3fMu3nDzkIQ/pbbNcXCt5dJCoD6Um2aa+aK8rX7l5n6Qp6oll+IZSm2xXf4fat9wwBLhu5QZazWnytus4zEp/Kfwg6V6LfjGX4nyKfViiTj/j6UrCQPe3cslLJ+3wRvvicW4EjMDuEOBPsWanD3zgAycXX3zxyc/8zM+c/Od//ufJXe5yl5NnPetZg+xqkdJiQ90LyyAoLbRDBNgc4wZKfS0k35p84p5r6qevqX8tY7UfRsAITIPAIv/o65GPfGRxdHRUvPa1ry1jgKJ43eteV1x22WXF7//+7xePfexjq7a+HxyFkuIxbLnAnR7D9tVnfiOwBAKas+SQ52wFgz+MgBHYOgLTxCT1Wn7qp37q5I53vOPJv/zLv5xh+oVf+IWT293udic33njjmfYhFZ6SyutQpZe//OVDVFjGCMyKAE/p8SSCOWsyAkbACOwLArOeTPzpn/5p8b3f+73FH/3RHxWPfvSjL4i7vvu7v7v45Cc/WVxzzTUX9A1p4AUv7NznPvcZIm4ZIzA5AulJRBlQ+CXYyVG2QiNgBHaNwGzBxAc/+MHiAQ94QPHkJz+5+OVf/uXsOP/93/+9uP/979/IkxV0oxFYOQK5IIKvNAgmTEbACBiBfUNgtmDi8ssvLz796U8Xb3jDGxox0+nFH//xH1enGI3MIzr1HbUX8xEgWrQTAvF3QJhvDiI6wWYmI2AENozALMEEXze86EUvKv72b/+2uNvd7tYKT/leRfHSl760uP7664tLL720lX8oA4t8+d11qzj+K+ggCOH3GbwhtMJ28AzMG70Q7CDi4KeDATACB4XA0dSjfc1rXlMtqL/1W7/VKZDA/i/90i8V9773vYtnPOMZU7vTqI9AQScWKaM2Bdr5gSsFFymf60aAIGLXv1rpq2AEjIAR2CUCk55MfOhDH6rek3jc4x5X/Oqv/mqvcb3//e+v3p+44ooriuc///m9ZHPMaaBAMMDJBCcMkZp+FVI62Cza6J3vfGfxxje+scD/W9ziFm3s7t8DBJgfa/jVyj2A0kMwAkZg4whMGkx8z/d8T/HRj360eNOb3jQIlj/4gz+ofnfi6quvLvhtiqGkIAD5GAh0/ZoDOemI8rTXEcEEL5Pe6U53qgIKBxV1SG2/nbnByRU5Qaq/Atv+NfUIjIARGInAVH/j+ou/+IsnX/iFX3jy3ve+d5TKchOufiGTX8qcivgb/3LBr36HootO+EtYKxnJKq+TL9/3qGSQI5VBxUl5OnPy2c9+tk7E7RtDgDlQBg+n15k5ZTICRsAIGIGTk0l+Trs8SagW2Fe+8pWTYMr/7njMYx4ziS6UaNFnI+hCBANsHCkhf8MNN6TNVT0NJhxUZGHaZKODiE1eNjttBIzAggiMDib+4z/+Y9T/2siNtfyvoie3utWtTl7wghfkunu3KTBgg28jAgbxp7y08/9FclQXTDioyKG1jTaut08itnGt7KURMAK7RWD0X3PwFxh3vvOdixe+8IXlvjkNff3Xf33BX4M85znPqb6XHqu13BAqFeUJRasqeMSfMvMdOb4NIV5Ovfbaa6s0RN4yyyHAdeb9GhJl5kMZWJx5/2Y5b2zJCBgBI7B+BI7HuHjllVdW/7yL34eYmp74xCcW73jHO6o/F0X/bW5zm1EmtCm0KVEgoRcvqautTbau/zu+4zuqlzK/8zu/s45lb9vBHRqLYaVk5g981YuV8rkpuJzZHas3AkbACGwGgVHBxD3ucY/qBOGe97znLAP+jd/4jeJHfuRHRgcScq7PhiZebS5DfriKIOLZz352QX4IpM2YsSqIyI1bJ0QK2HI8S7fpFAK7XHsHEUtfAdszAkZgywhM+qehWwYi53vcEBVc5Pho05+GUj60kwiCAv3IlzZicIAibsKTXPxTBxb40vTbIee8+vxnzvfo8+c5XTICRsAIGIE6BBxM1CHTs51g4nnPe171dUb5Gkwl/frXv77K9fXGmN/O6OnOIuxpUDBkE9ZmTlBBeQzhDycMXXTJLvbw2ycRY5C3rBEwAgePwG7f/9wf6x//+McvGAx/DVBuUqe/S1BOtqp+AeMGGzQu8iloCn1lUFBh3eQP14TrQIKfuskIGAEjYATGIdD+t5Lj9Fv6PALaLLWRUSdtkdiE59iIhdEQXNpkCRoUbMzh+xavo302AkbACEyFgL/mKHf3JUlH+XpnANvlRjj6iH+pMfA1AlRuzrOY1NcPfTHhH21B5Y1xxi99FUMO9dVbCfnDCBgBI2AEmhGYKiqxnv4I6Gm6vELVsTt10hDqelxf/kO1k/Jfww8xUfnGU/3cxFjApOuYwAz+iB2yOolI++b23/qNgBEwAoeGgL/mWMEVZxMkKahgE6TehyTftgGXT/4nj3jEI/qornilv7fgQAHZaxuP+MghBxEVDP4wAkbACCyKgIOJReFuN6bNUYGFNsk2STZRZNpODoYEE/KpbWNv87FvP2NpG49wSoMI5Jb2t+/4zG8EjIAR2BcEjsrF2LQiBHhnoJxcp3+qyLsVvA9AO6mOys2zktGfR9bxDW0vA4oCG0sSNhkPKUcRD/3oFD6WQUSVlvY356PbjIARMAIHgcC+REX7Og5OBUjlZDxN1OtIvHU85Qbc62sO6auzN3c79sug4AIznDpETCj7JOICmNxgBIyAEVgEAf81x4ZCRp7E078Cwf34hE5dT+k8oadP58i/5S1vKa655hpYW0m6lbcKzMDAyUw6Fo2xizlhUAYmF+DRRd48RsAIGAEj0IyAg4lmfFbZq409DSzUztcC+hPOMiQ9M4a+wQQbOZuwdJ9RtlBFYyGgEDV9/cHPaefoYQ972E7HkfPJbUbACBiBfUDAwcTGryKbfBpU6EmcTZhy3IT7BBPSnQYkS0NG4IDfcRxL+2B7RsAIGAEjUI/AUX2Xe7aAABs+mz2nByQ23fgVABsxPENJgclQ+ankmk4iprJhPUbACBgBIzAMgeNhYpZaGwIKGNj89SQvHwkwaCf1Jb4a2DUN8XvXPtu+ETACRuCQEPDJxJ5cbT25k/POQLoBx9OKrkOue/egq7z5jMArXvGK4kUvepGBMAJGYM8R8MnERi+wXkokeKgjBRScLqgM7w033HCmXid/4403Fms4mcC/6H+dv25fFwIveMELiuc+97nFlVdeuS7HMt7oZE95hqVQwF7HQ/uQvjpbmvPYpUwOqb2qZD7a/MyIVE2sKXO9l/S///u/xdOf/vTiiiuuKB74wAfWueD2DSPgYGKjF08LjBaWGDCoLTc0Thtuf/vbF+VPaue6z7R9+MMfPlPfdUVj3rUftt+OwDOf+czixS9+cfHyl7+8eMITntAusACHNmNM8dVf+qfCum/6zjPxN53kobsp2MCn6B91Eb5C6pef6qc9bVOf8jpZ9ZOzhvTRhQz8jJu87UXtP/zDPyxIP/iDP+igAvD2jBxMbPSCtt24TcP6yq/8yuKnf/qnm1iqvje+8Y2tPEsxsFix+JvWjcAnP/nJ4rGPfWxx3XXXXfDbIGvwnHnEpq73iKiLVFauDVr1uKnTxibKnKQsXukip10kHp7+0yAGnsgrmXhSIP3ikz54I59k4RcvbfKdsnRRbiLJ5/hlHyyx32c92mpQoTE3YXbIfQ4mDvnqdxh709NWB3Gz7DECLK7apLTxxOHSp3Y2nTWSNkr8pKwkv/GZNijlUVvVmflALtUjXSl7rl3yuSBavpDngpOoH+zj1xfRp1jWvR7bpCf6R1n1VLf4u+RrDSo0/jh/c+MBA05z1jq3cz7P2eZgYk50N66bG0ULzC6Hopubm5cbF5/wDdKipnyXfh6Cba5FXGTBnc1MGx7XhmvE1xx3uMMdKkjgJ4mH/l0R/mk+4UMsU8c3xoS/EGWIdpLK6IkbdNWR+UAeG5KNLLSnfdQhctmOOX5xEhDnv2xUguc/onxspwy//FFOO2X6SF0IftJYWktQAWbgG7GL11i40A+Rw6+5wvyeAo9K+QY/jjfos11eCAFuHt0oC5nMmok3tzYD3dCpf7rhtdiikDa1Zw24sRUBLZy6FiyyOUxpu/TSS4unPvWpxe/93u8VP/RDP1QtsMhJh4ztYuFlXuCj5o3GoJx2/FJdvqbzLm4y4snl6JIsOqVX7QqwkAWfHMV2/Ec2JfTSThK/bCmPMvCJ4CfhZ45XfDFXQCNbyqPeyN+lfItb3KIgLU34znUn53qQmnBQH7nGSx7nlHiWHssu7R3v0vhQ21x0XSzKIrWp7nwcAsIz4j1O4zBpFjkFB3ERx694/eGD0nbd5PRpTNKnNrVTN51FADzZPMCoLoiIEk95ylOK//7v/y5++Id/uPjiL/7i4vLLL69kkWfRjQsv5V1SnD/yQ/MHf0kQ45av5OARA4GKKfmAjzmpOYveqCNhP7VFu+xGX1L+WJfe2Kayxiidalcuv5p0iJccvjSoQXdXX6Muyo9//OOrFzLvd7/7pV2z1xkL6wP+d5nbdQ6hR0lzg/oh0fFWB6sLphuB3DQ9Atxkutmm195NI9c2t3DjG6mOtLipv0uwAS86txZszPU/VFgQuf7g32dx/Mmf/MkqoHjMYx5TXHvttcVDHvIQXYZTPQry+ug9VTJhIc4hzfXYhil8pI1EmflBuWndES/y8KE73YTpE0VdwhwdUQ/lOkr7or46GbV35WXskPKqcv5DfqZ+RJ5Y3mUQgR+MQTjnxhN97VqWHvRCqneV3zRf+RbuJqicoCdl5Hjqa7m4VWXaVD7tdKEWgXJy9/oX5OBbTvAz2Ncqn6GDazvX9WVsJNlgjpEYb1OCRzLk0jPD8DurlN/4MxWhCxzG6HzGM55x8qlPfSrrEriN1Z9VXNOoa00OXqI4vtiufvhF8EYe+tQf28VPLh7yaCvyRD7KKR/1Ov3wgyP6oTY7FVPy0VVGNmQnUVP5kbZR/5//+Z+qDz/LIOLk+uuvz7Et1gaeEbOpDYPTknN7av+H6ONPeiajrhNyiMHczTVEz6HL9A0mwItFrGkhmwvTXd+Q2NecZv6RwIFFoinBI35y6ZkLJ+nFlvyiPIaka6yeNh/AZqlFV9cy9Yl2UdM8Bwvxwqdyk2zkoRzrklMe+yPulEk5m8iqH3nKyqW3a45sH8JO9El+5HQQTKwhiMA3/GTO4f+chP6l5vac4+iqe/B/DdXxjb7PLidVoaMy9ZVAjiLpQ0ksU5ddytBUNs9p299Pjt/e8pa3FNdcc03nQYK9vlZaEmdsNh0Ldx7ATIyak8oxw7yM9Zxp7hWIsUGqK68aB35wfXTEWi6ag+4L/F/yei9trw5aYVcunmdY8I9EfyTqJPqgHA/t8MRrCx/zhOuTttNHm3QhKx3KU1l4xIccSetj1I98WqcNQp6+uv5zXJ//lB34Nd/WfK/Kc8aJv0PvDenpmoMT91IZWHTGtqvutfENDiZyA9GEVi6eOPHUlsvhgySvOm2U1S6eWKfN1I7AkGACrWCN7FI3heylC3v7CNfFwbwliZYKNljAsDtk0dxFELeW6w1mcUPVtYttupYxx3946vikJ8qkvJGHPnSSUkp9TPtVj/rUltpU+5A86p9S7xBfusrM9W5Rk32uIWvn1teypjHSN3kwkZv8GIrtbRMv14887SQmMSnqxIapHYGPf/zjxac//enqLft27rMc4L1EQLGUnbOj201Nc1nWCTYg2uuIewDSyQZl2tROHRKOlLsGgZLZxcJHECNfq4I/jMCECOx6bm/h5GYU3OWiMRmVT0GVLr4rIk1J6JZO2ZlSv3V1Q6DcsGb9vpFrW07oE1/jc9eDOQ8WSuCvawBOuSQeZGI/9TbaJfaMFfu6z9t8db8R6IPAGuZ2H3+3xtv7ZEJPUnqCik9H5cU6Q+WiVpCmJiJMkmk3CCjCLzenSa+D9JabySzzZjdozWtVJxjKdV+qnlpvumbCv1zEUrHF6lOeToABJ2l7/0S42NVZ1hDzURTLauuTI8+9wdqyK2Juc//NsSfuakzR7nGsdCkLiLEXt4utHA925UOu323zI6Brz0INqT7UshZ95B1I9ENR94LyKA2u2pxphyfHF2VY7HZJ2Ne8GuMH42b8UNMDT8Xgj9UiEOfCmHWGQGIN84DxtN2Dq70YbY5t6SilXGhOys1mSy7vta9cD1I5x6q877WBv7yxTuX3GqyFBgemuiZcFxIYd7k2uo4LuZo1g5/40cXfnII49q7jzulx23oQiNeU8hAaM6eG2MvJaG7n+vahbdLfmZgTEC7E0AVmTr+s++SEG1xBgTYk2ki6bspTXuRM4xEA33gN+m6kyHPt1kB9fcfnOP4h8msYt32oR4B1g/mpRL0rSbYr/5x8+M9c3Udax+qxj8ge6Ji4cUlxY9MCQJvSvt5QS1/2uImC89CNFD3Ir4EYA3OoC6Xj7yrXRbd51ocA11frSddrDR9zag3UZ26vwd8+PvR+Z6K8kCYjUIvAmO81a5W6oxEB3g0oF6lRL3dJR6OhBTv1ImmTSeZa/E69DCwqdr0r0STrvm0iwDwncd2VymCh8Lqz++vpYGL318AeGIHBCLCwlk8Pg+XXKMiLcm3BBD8+lFJ82TTtc31/EVBQQTDJ/ZCjNbx8Kb/a5rb4tpY7mNjaFbO/RsAIVKcw8VQCSHhCNR0GAmzIOoEigODa1wUSa9q81xTUTD1THExMjaj1GYENIsBCvKVFl2NtpRhU+Lh7g5Ovh8sEEFxvBRJdvuLoctLVw4VRrNxj+xpQHI1CxsJGwAjsDQJaoHc9oD5BDcEDX/OwqbDJ8PWHA4pdX8F57HNd9fshBL98reFrPQ/WQ7Q6mBiC2sZkuOHaNoomHmTb5IdA0mSzj773vve9fdjNu4cIMJcIKBxU7N/FZe0hiCBYVBDR9H5EigAyc6xfqZ0udfzAn32k3j+nvY8g7MOYdLMoZ3EVcSPGN91zkznySE4TH13IRDnZEa/kI4/66nKeIuteHkR/agM9uWNCtWnMqRz11C+1pe11vh5CO9ejzyI9FyZj/WAe6KsPgguusa/zXFdrPr3co/ErjTFzc+ycmmKUjId1sm7Nm8LGTnWUAzPtAQLlonk6inLhPClvvNNUTrDTsvpgjjxqpw1d5LRBqleVmg9s9CXp7yOHL31piExfG/vAz/UYck2mHDvXashcyvkgXbseU843t7UjwHVjLkxx/65lbk8xlnbkdsNxXF4s054hwAs+5c1zOirKqiunU2Ui5iijdj3dnSqqKSAPkUu2aggf9JEiUddpgtqRlw76VJYspxC0k5c3ZtUvPvFKl/N+CIAnT067JvyYgpgXJNM2ESgfaKo1Y4r7mjnVdT2bCy3sTzW35/JxjN7jMcKWXS8CcRFNN202Ym5USJu0+NlMmPB9b+C2Gx99UWdqV77QHvkqJ89/4KMSfOJVgCFexqA3pumjjJzK8HFj43OdLek6pBwsSMJ46bFjl+tSPlctbdr2VorAVPcnelgXtGYsPVzmNqS8quzZx/Gejeegh8ONIoqTljJ9pNgOL22QNpEhgcSQiFt2K+MTfyh4QC3j1ZhjmcCCMZvOIsD1Z9EVZmd756+t8cmNudp3rgyRmR/dw7bA3GKt6nstp0BtyBo5hd0ldRwtacy25kWAm0Q3CotZmrAeN1TVkaFdspS7EjYgZEl9ZHO86Kgj2dK46vhiu04tsEXZ1IzAkOvYrLFbL9eHBTc3J7ppmI9L8y5aIOBqIsYSiXGhRzl9lOtIvHX9uXZkSPimlOOra6uzKb25nBcbae9Dffn76G7iFd7Km3in7JM95VPqXpOu4zU5Y1+mQ4BNgZs2bs7UcxNafPDqreeunsSIG3nq0lenI+cDvG1y6I88lNsoPaVo43f/uV+S1GZZd62mxInrGOfRlLq76rrqqquK7//+7+/Kfvo1WmeBkpH5C5GDaxO2XeY2uiIfZXTKTp1+yYgPPRD1NAhSOzLSH8tdvpISf2Wk/NC1rvNPfHPkOnlD9xL2scF49bXyHGNai04HE2u5EhP4wU0bSTdx3U2jduVsIPE9grYjZ+TYrOOihDx6Ylv0iTInBHU3V50cMhqf8lRvrq6TCdnN8bjtLAJcg3gkXHdNzkoNrzFfsKd5OFxTf0mCiBe+8IXF+973vguCiTjP8JG5Hgl/hY3yKBPHE8uRJ9WnOvMWe8JG+tWvnHZ0S7/KqosvzfGhTie8bf3xfpRuyaR6VSfHr7jGSHapHB+WmtvgocBJGCw1zp3Y2c0fkdjq1AiUN8ipyvJmvaBMW+Q5ZThfUB+5yuKhHnXS3qSPvnIyVzzSoTynS33lDadilYsXfaRIsS0nJ944llhOZcTv/PMIgBfXMeL2+d7xJa4h12Eu/U0elkHEyYMe9KBqfIzxDne4Qy179C/OuyiQzs84v1SWLHnUGfVQpi/Vl/JQF4/y2Bb5Y794ZJ8+JdrAIndN4FE7fFFettSmeprTj541EL7MPbfn1L8GDFMfjssBm/YAgfgkUt70pyOiTIRMypHkYk5ZCRmeQqLOyJvTCW+5aFRPVeSSRY6y6pKVf+mTH/30iT83hlyb5KL+XFltzvMI6Drr6Fv1PHe/Vq6bnrqn1Nvmxatf/erqJOJtb3tbG2u2HyzS07g4R3NC5cZVMEYSY+aeQEZtOZlcm05HkIPQIaor04/PuoeowysdsZ0y9zr+5YhxI4c8CSKPOqrGzAdy4lNZ9Qz77E34AM0xt9GNXl33ytAhfKTRhev7iUC5QAwaGHLlfTBINgo12a97YkGmSU76kY80RCbKu3wWAfBlDqQ4n+XqXis3kUn1dbGcnkQwnpiaTibwV0SZ+aWcMriQR4r9tNOvJD7qKSEnWXIIvjobqXyXuuwqjzKyGdsowyu/8IWk9qpQfqhNdeW0Sza21fGLZ4kcHzS3c3j08UEYoW+srj5218I7fpdYy0jshxEwArMiMGbhZXGVfLqxzOn05z73uZPHP/7xZwKHGESonAsm8JeU22Bpj6TNgxz+dEORHvqVojxl5KJeyiT4cyQ95OJTG/U6nOkj5Sg3VviijVQ+rUe9bX3oXQPhJ9eMvK9P8Oua12G+hjHO7cNxCaDJCBgBI9CKgI6GYeTIHSoX3yovF9HTXEfgNOgYWcfh5cJbiLcSmPnj6OioeMUrXlFcccUV1dcbr3zlKztbxE8S48Z/kkjjos5XAxC8UIqJ5Bi7SPhJRnLU4ZcM9cgjefLYThkZ5fRHe9QjRdnYnvuqMfZLTv7Fvly56WsTdIGjdObkp2grN9Hi//7v/xpVMT8+9alPVUnX5rnPfW4l89CHPjQre+WVVxZvfvObT3n+4i/+onjIQx5S1T/60Y9mZWj8oi/6otq+TXfMHa1YvxEwAvuJAE9xpHIBrE3lRnFSbmpVWgMK119/ffakIncyIX8ZY6Qu42HcELzIK9EWy9RToh/qYqdiPP8hW7Id+2KZftmI7ZTr2tGtawlP5KPcpBO98o2yKNWj9qnzj33sY7Xzs2nuztX36U9/euohrkKf/2vopkNBO28E1oWAno7X5dWF3rzzne88c1JRBhPFRz7ykQsZyxZOJkginlzLzbGqpn2Rp9wsq2q50Z7y8qSuFxnFG/Mx+OGL9KMz+pzawE7aTz1tQw5evVDIWKiT4CWHaJes8qrj/AdtJGGHHOVyF4xss5Rvvvnm4oYbbphF9xCl97nPfarf8xkiu2YZBxNrvjr2zQgYgVkRUFBx9dVXXxBMsOFps9RmiDOURSkP7fSz+caNUnxsuqQmivr1FYr+giSVlX/k9KkfHW2y0QfpkXzsS8tNY8Fu9F+yalOwQ66ATDzOt42Ag4ltXz97bwQWR0Ab1+KGZzRIUHG/+93vAgtdx5ryqc4mqg1a+QVGRjTITpOKLjxN8u4zAl0QcDDRBSXzGAEjcIoAP7kOxSfv004XjIAROEgEjg9y1B60ETACgxDQcbXeBxikxEK1CDzzmc8svvqrv7r4sR/7sVoed5xDgBOXOup6CiQdXfllT3KqK++rR3L7kB/twyA8BiNgBJZBQH8SqaBiGauHY+UDH/hA8aEPfehwBjxipNq4mZNxc6fcZX7CR9Kc7usKcvozUmTRNeS/qPa1u1Z+n0ys9crYLyOwMgS0QPtUYmUX5oDdIaBQMKDggpxNnZxUR+rTi6p1fLl2ZAkeIOkhJ+kvVtReMR3Ax9EBjNFDNAJGYAIEtGgrqJhApVUYgdkQ0GY/m4GMYgUUulcyLHvb5GBiby+tB2YEpkNAAUSXUwnxNlnvwtMkP6RvFzaH+GmZcQhwndnU4/WmrLryaIU2ThRIMQihnUQb+RBCTrLKpUd9ylP74ttEvoqfzrITRsAIrBqBcjGrfkUwdZJfNoyU+6XD2K9yudireEGe9qGTRDs5VAY1VVl51djykeptYd9J90033XRS/njWTmxv1SjXlcRcUB7Hona1RR7mE3M7ziv4oSa5XH8ldF4OneKRPurYjraoiySj+tby43IAJiNgBIxALQJ6mioXxVMenqCoc5zLU1u5KFZ9lPkOmpwESb6qZD70VKY8ZZFucunEhvTSJh7J0pe28cNPkodPZemR7C7zO93pTrs0v1nb8VdFc+9L0C/SvFWdXHOFnLmtOdEmF3XkyszTqIMy94zsxb6c/JbaHExs6WrZVyOwAwRY/FiAtcDKBRZENmRyUqRcmzZvfZ+sumRzL8KJJ+qmnFuE5Qv92Mj5S59I/MrV7nzbCDCf4oadbuiMjmsu0vyjrjL9bXKST3PkYuAtnSkf7QQu5NiLMinvFuoOJrZwleyjEdgRAumG3NcN5FksSRA5C6f0kqtcMTR8IId8ys/izaIM0Q+VR8mVnaqS+YAfHvFnWHbS9MEPfrC41a1uVdzxjnfcif19MKqnf8bCnElPItSmsVIXqax5ocCXfvrULv40h4ekwABfqEc5BcK0MwehdE6nejdR39r3MvbXCBiB5RAoF7GTcmG8wCDt5UJY9ZGnqVw8z/RJAXwi9JJEyEDK1a5cslGGPtkWX11ep7eOfxftj3rUo07Kf329C9Obs6nrzlzk2lKHyNM2zTX6Ul7qmlOxD11NcvTpPpBe2iiL0nb0i+ClrhTlxLOl3CcT5WwwGQEjcCECTU9L5QJYkHi6gihHik9jub7YH+VyZdmIfZws6AkvPVZO+cpFOja5vCcIaP6l15d2tWnuMZc1n9UnGKgzx0hpX5McuqUfXWVwcKZOG/2kOtvIYBceTkEoixf5LZH/N8eWrpZ9NQILIsCLbCx2ucVNXxPQx0KYEouiKJWXDHLYYAGnLJ3Ko7xsKJd+6ugjpaQ25ehlPBDyyJLWRJdffnlx73vfu/iVX/mVNbllX2ZAgLlfnjycao5z+rRxQ4XjDflqV42AEVgIAW3ATeZY/DgV0IZMXXK5zZq2yKOgQfI5W1EPusVLTj3qy8mLX32qK1e7cyOwNAIE0czhSGk99q297GBi7VfI/hmBmRDQRp1Tz5Fr3amE+LUhK6e9SSf9WizhS19OS4+Y4W8jgpkmavOnSXYXfV/zNV9TXHrppbswbZsLI8B9E++dhc1Pbs7BxOSQWqER2AYCdScD2vCbRqGvC+JiGMs5WfrZ3EnYUF1+5GTUhkwMHCRPP+WYxzJ96q+YVv7xa7/2ayv30O4ZgTwCfmcij4tbjcDeI6Af90lPBJrelegCCps3Jxvx+2DkCAgggohI2vDpR44TCwUAUYYyCfmcDnRKjlxl2iVLOaXIl/a5bgSMQDcEHEx0w8lcRmDvEMgFE2ysXb7i2AUYCiR2Yds2jYARaEbAwUQzPu41AnuLQC6YGHsqsbdgLTSwV73qVcWXfumXFg9/+MMXsmgzRmAaBI6mUWMtRsAIbA2Btq8KtjaeffD3la98ZXHttdfuw1A8hgNDwMHEgV1wD9cI5BCIX2/Efr5a4AVJv1cQUXHZCBiBFAEHEykirhuBA0KAYCFSDBooE0ikPJHfZSNgBIwACDiY8DwwAgeAwN/93d/VjpKgQS9dwkTwQBBBG1+F5H5cp1aZO4yAEThIBBxMHORl96APCQG+h3/wgx9cvOtd72ockHpFAAAk7ElEQVQcNkFFPI3gtyQIJNJ3KxqVuHMUAk9+8pOLyy67bJQOCxuBXSBwvAujtmkEjMAyCLzgBS8oyv9CWf2vh/ve975njOoXKHUCwV9yQAQPBBIOIs7AtUjl0Y9+9CJ2bMQITI2Ag4mpEbU+I7ASBJ75zGcWL37xi4uXv/zlxROe8IRGr/RehE8iGmFypxEwAjUIOJioAcbNRmBrCCgg4E8L3/jGNxbve9/7Cn6e+Su+4itah8IpRPpLmK1CZjACRsAInEfA70x4KhiBjSJA8MA7Dnw9QeKlSRLBxDvf+c7iv/7rv4pnPetZp+25v8xQEOFAYh2TgH9B/rznPW8dztgLI9ADAQcTPcAyqxFYAwIKIAgOIN5v4P9gKL397W8vfvRHf7S47W1vW1x33XXViYP+MZcCDgUi/lpjDVfUPhiB7SPgn9Pe/jX0CA4EAQIAkv6Mk6CiiZ7ylKcUb3jDG6qvPPjX1iLk9NLlWl+0xMf4X0Ll+77nN9xwQ3Gb29ymuNvd7rbvQ/X4SgTiP7XbOiAOJrZ+Be3/QSCgAIDNn3JX+r7v+77ixhtvrAKKiy+++FRMQQn5Gk8ndOrCYmsyAvuIgILlffmK0cHEPs5Sj2mvEBgaSAACX33wT6Nuvvnm6lQjBWaM7lTXlHWCiX16apsSG+vaDwS49wgo9iWYON6Py+JRGIH9RGDsZs+Lma9+9auLW9/61lmA0A/xtQekelXxhxEwAkagIwIOJjoCZTYjsDQC+iqi71cbqZ93uMMd0qYzdQUQeo/CP1Z1Bh5XjIAR6ICAg4kOIJnFCCyNAIEER/1jA4mufiugwCZfjZiMgBEwAn0Q8J+G9kHLvEZgIQR0SqBNfgmz2FoqeFliPLZhBIzAcgg4mFgOa1syAp0Q4FSCxMa+C9L7E7uwbZtGwAhsEwEHE9u8bvZ6jxHQqcQu3l3w6cQeTywPzQjMiICDiRnBtWojMASBXZ5K4C9BjE8nhlw5yxiBw0XAwcThXnuPfIUIEEhAuziVqAwH20u+ryHbzo2AEdgmAg4mtnnd7PWeIqCvOHY9vF29r7Hrcdv+NhFQEL5N7/fDa/9p6H5cR49ijxBYy0aun/vdI2g9lAEIaKMee1rGSRc62vRgj9SFV8ORDPU+cpJ3Ph4Bn0yMx9AajMBkCLAoroFYkNfiSxc82Kj4jQxS6rf6yNO+VHfkpZwSbUpp39A6+pr8or+NkNf4c/rkcw6fNt3Mhdw7NHU+057rw4ecntQ+9voGsuhGDlJeVfyxGAJHi1myISNgBIzADAiwkUD8jwNOddgwRWxq+v8H8FEXP2V+blyU8tIuXsropa425fQNIeyhE/9ymyx9pLq+1D7/y0T/GC1uqOiA4Acj1fv4LL2pzYin9NHWRm08soeenI2cfsac+pfjc9tMCJS/dmcyAkZgBQiUCz0/PbkCT865gC/4tAsqN4aTMjDoZDrFDDnJoieOIfahXHyUc7zSjQ76I6kvtg0p53RHPTk7yJBEcRxqI4cH+ZS3jj/KwqOk6xH1qJziEuuSh5ey9FBuIvqRiamOHx5IOiVbNa74Az8jVit2tZNrx+VEMxkBI7ACBMqFpfKCJzGVd+WWnhx37Ufb+OVnHR/95aJ92s14eDLXE6zyU4ZQgFenAjk79CMvHcqRwSb9pDkop1f22+x2/QpB+vA/YqbxyIdyM1dTlcdThagDfuqx7YxgpiIbma7TJq4NSXrJOXEqd8BTHhfmR+BofhO2YASMgBFYFoGuG2b0Kg0YtJHR3qYPHm2WbGKUadMGJzu0zUH4h63ULnVoKrvYQBeJMikl2Uzb56pjL/UjBpBz2bXeswg4mDiLh2tGYOcIsFCbuiGwFFY8bccn7tQ7NrS4icYNjo2OxNN95El1jKnrdAD9JJ2ooJM+BRv40TSOOh/AWVjLBrog5ZTFE9ton5PwJ6W24C/ld308AkfjVViDETACUyGQWxin0t1HD5vRWnxp8nuMj2x8HIdrA0SXythUWTZyG5T66nxkU1XShl/H26cdv9EL4Wd8qVI+Rf+xLT8YR5+AAjl0kihHop7igl14d0l9xrdLP/fJ9vE+DcZjMQJbR4BFMF2cdzWmLRwVa9OKGxj4yXfy2AeW6kOWTVY6chuQ+tg0419+oAe9UwYI6OxK0e9UBr8iKQBQTp/GFfnSsvhTXtrVhy3hKb3p+xXwyCeCVF2fnF616R5Ajja1pz7m6pLJ9bltPgQcTMyHrTUbgd4IsEinm1ZvJSMFWIxJcZMYqXJWcfzUsT5+ExRo8wFPNjfaSWxSMQAQHw6mvLRFDCjDoxT74B1C8gtZypB8auoTj/gjL1jgW+SpFJcf+B7xUXtdrrFqc4cPvbSTY5dyJNojiQc++YWPaoeXMiTZ2Icc17ApgKqEyw/5olztzudH4CL+5mN+M7ZgBIxAVwQIJrRxdZWZko+FON10p9TfRRebB5te101BmxG6tSFFO/THDSr2peUm3qa+VE+XOvoiRd/TPvhif5Sj3ORbU1+qJ63rGihP+9M6fCmvxtLkf5SBr4k3tUl9zBhz+uZuY7y7vs+mHKODiSnRtC4jMAECLDI8ue0qzieY6fIUOMFQa1X0DSZqFbnjIBAgkOgbfOwamH0LJo52DajtGwEjcBYBFhkWRvKlSba3tjAvjZPtrQsBz9fdX4/j3btgD4yAEUgR4Ihf7wEsFVTwdIfN+E5B6pfrRsAIGIEcAg4mcqi4zQjsGAEFEGzuPHXN/eRFIMFXC3pBbsfDt3kjYAQ2hoCDiY1dsC24y8YEkce3wHnaFmmzVP1QcmGjU4emzVsYKaCYEyPZkM05bVm3ETAC+4eA35nYv2u6sxGxUfJ0S2JzUiBBEKFAgjb6eMkPvn3fvMCEMTJWjZmygoq2iyV8+si06Yz9+IFfkL/eiMi4bASMQC8E+NNQkxEYg0C5CVX//a48iq9y6m0ET/lUzp8lV4ny1okxkYSDxqZc7eLrM15hhexUJJ1rxB6s1ujXVNgfip6u87UrXw43ZLnHxuhA71j5nG9Nbcxv5vm+kL/mKGehaTgCemIub4zqCbyrpvImKkg8eZN0klHe0F1VNPJJbyPTyE6dLuC7ylKp8YELRH0MMR4IvNGF3qE68ZWE332vW+XESj+EkXK5Getg1oQbvJyecZKW4426Ylm2huZcj9QvrnVKdddd11MngKnv8pWx1elIbcV6zr/YX1dGDkrHVjUmH0NtoLvrmLBBEh7RBdqhLr5WjP44i8C+REUex7IIEMWXN92kkXW5IIx+wpBf5Sw/oTwVoYukMaM/JrWLbyq7qR75gG1sUu9K4CuMyddMjK2rjxGTVIZ6xCjqlZxwSOvIRn0R77RPOvrksodeUiT1kStFHsrRN3jkU2xHZ6qfudOXpFvzDp3YbKPocxOv/BcPdbXJJvVI8ol24aE88qVljT/VR11tylPZKev43xWfKe3Opav/rJrLE+vdDALcaNyQ3AxTEzrRPeRmll9T+IYuEjc7CZ0x0SaeqTHook++ySf5CX5piv6rr4uNXfLgM772oZxM2oZO2kTRBu3gKqIPfCHhrT5y9cW2IeWcbtpIkaKvaX/sizLw4WfUBW8df5SNZeSRiXpif64smVxf2lbnT5s9+pVSnXV1XX9san6gg3pMdfJTtWNLvkylc5d6jsuJZjICvRDg+LW8EbJHhb0UZZh1/IiN8gYvypstw3VhE0eUOhYe4hvyHPtDOu6UFXwgoReivGvCB/mBvySOsEmR9PIrvos/9u97Wcf+GmeKj+ab+mMOXnVzAj76kZcO5fr6iH7SUIqy0Q76Yp/0yz59uX7xpRiovSlv05mTZU7Kp1x/bKvzt65dsvRjo6sdfNJ9nJPp47N8cH4OAQcTBzgTPve5zxUPfvCDi9/93d8t7nWve/VCYM5AQo5wk7PgsSi3LSbIsAAokOgSgMAP1W0U2Kz7zrwSXNkH/nbBaWVuL+JO3DB03ZkjOaJfGw39wpT2tg0YO/CTKCOjlPoATxulPG320ZezKz34onKb7Sn6ZU95TmeuL9eWk41tcVzIiyhH7NUO/xA7kneeR8DBRB6XvW4tj8KK6667rvjYxz7Wa5xarOoW417KWpixQYCATVId0aegoC6QYOEgsSCTR2JhIWkToWzaPwS47joxGDK69IQj1ZHOUc0r2tXH/Bty7+B7V/uav7p38BObjJ029JC6BCfpGPvUhTX+RAykI70PaY989GsskqnLpYscHSLkGXOKufjF53wiBHb5HYtt7waBz3zmM9X3qG9729t6OVBOuZNy0+0lM4a5XAQu+L436sMXfCLBC5GTyoWkSupXTjty8JjWi4CuUx8Pm2Ti9dYcpo15IUrlYz8y9EeiHvXGvj5ldKS6o3zODn7HcaTy9Nf5Bq9ko51cuU5HjldtyET9aR2+2J+r97EbsZAPylPscr6IN+dH7Ju6DAbpdZvaxpL6jssLYTICrQgQ8ZeT/0zk3yo0kqG80QoSTznkkfCHdgi/9OQVeZAh0Q9RNh0eAnVPucyHcnM5BST39K85w3zTj3tJAL1RXu1T5tggaQ5LN3blm9qUwx8J3yHllOtk6UsJuSib9qd17sUmXNCV2uekhHYSpDFEPtpivWIsP5qw4JpGGemVrOrKdXoZZcTrvBmB4+Zu9xqBcwiwQKQL2hLYYJOjSm523eAsOAok8EFl+rV4iHcJH21j9whoM8CTOFfSuZN6GucJ80r86GBjiXOeMjxKsS/V27WOHRKkPPpUdZQfaVusU5as9OBb5JEefNc9oramXLqRq6PYhx9pUIYO7lH6SFDqWyojjMVfCZ3/SGXTOmzIkXJ9UZd4sMe11zWl3BQQRR0un0PgIo5BDMZhIfDZz362uOUtb1mUX3MU3/zN39w6eG40FoNdTRXd5CwM3PxamOQ47SxG+GnaDwS45n2uKfMikjaRtF086lc95siQcvNJfcg36Yj6msroi5TTiR85X6Ic5Sbf1NdFT6o31lN/6Ys+0x/rkpVcrk88Xccp/lyu8WGnzlbqYxffcrbGtuErAeu+BC0OJsbOiA3KDwkmGKZu1KWHzMYCpTedbkYtBvDoyWJXvuKDaTwCfYOJ8RatwQgsi4DWr3RdW9aL6awdT6fKmvYVAU4CtEnvYozYVkAR7ceAQWV8hch5MunzdBt1u2wEjIARMALdETjqzmrOQ0ZAm/UuMNBxZTyBSP3APxJfxRB8kOAnqMgFIqm860bACBgBIzAcAZ9MDMfuICSbNvC1AqDAh3yL/q8VV/tlBIyAEahDwMFEHTIH0P6Od7yj9Yer3v3ud68CCZ1O9HVmqFxfO1PzEwRt1fepsbA+I2AE1o+Ag4n1X6PZPPyJn/iJ4uio+Zuum2++ubjvfe87mw99FO/rBssJik5ThIfe+VA9zfnqpu49FnBK9aXyQ+roHasbv+bwbch4LLMtBJh7DrDXe82ad5L1+m3PJkCAP0v6xCc+0Zhe//rXF+9617smsDZOBQvJPpI216bx1fWxsJLU32ehRUapDlf1xxxe1fG97n0U8aS55Otsun2/EOD6jyHJK68LRNU/ha0xOg5Z1icTh3z1Nzb2Ppvl2ofG4kfSmPRXKNFvLZCRT/20qZ+2WBZPLk8XY+yrTXlOTm0EoPKZXGX1K+/bLrmxOTjkbGts9OX6o90mXvokrzzKDim32UMntprsMe507JG/yUabz6neNv7YL79kP/al5To7BKz8+WTTaRy6sNFmp8kf+qCIW9Xgj04IHHXiMtPBIqAbSzfawQIx8cDBVdiyALJYqk3tqucWSPWlvE1uokdJQQHytCmP8tKttrQ+Zk6MkZU/ytHFRsPPXef00qdx008ZiuWqofyAF2KsBHjipU1l+nKy8PQh6UAvOuWndNCuJN7YR5uIMtcUn9PAFB30kUMaY1Xp8IFvyJKQVYr269RontX1qx1dOX3Y1q9j6h6RzJAcffiUI/pMwxE4Hi5qSSOwDAIsYtC+3ewajxZS1avBhg8t5KGpWnjj4hvLkU9ldKT6Y50yOkhpu3TQx8KufuVRRtdKMuQs3toQYjtl6Ujb+9TRQcrZls/SB482U2Tixit55ciKKDMO/cAQPAQv4hVfnxzbeu8FXyjHjY5+2pXwu8mefEt9QI/60MVY0NOkK9UBL3LyJe3P1eGHkGkj8cKXlnWNIv6pPmS6jkdzUfzyDzv0oavJVmrb9XMIHBsII9CGADebFrY23rn6tejOpX8XelnMwJaFi5zNQuMkZ1GD6EspPqXBB4/4lKcyaodfdlIe6SInRcJPFlstwvTRBkm3+qSHPtrUTn1Jwg/NXXzEjzh2bbL4xFhiH/zawFMs4Jc+jU220s0K3hzBJ9/oF5bijdeYNuyJZFN1cvkY+dQW+VI7sa+pHPU28amPsUU81V6Xa0zYwW9yEqS+qpJ8iDdpzlYjHtIZ5SmrPavAjbUIOJiohcYdQoAFgYVhV9R3UdqVn33tarGMGwo6tIBSjgud6uQQfRCbQ7pBSC7qqpjLD+zFTVTt6NDiL9/UxwKbbpK0wZ/awLbmS9qHDG1pu+xMnWtjICiQTbWltvBb46dP/LSn+Kay0ilcqXNygT71IUNZdeW0Y4MkedqwLx7sxz76U0IeGcaqoI86pL6qcr6u8hw59vBB9nM2ok8pX6y3YY8e4ZSzE9tyvNFW5HW5HwLH/djNfagIcBOSlr7xtEgo3yf8hSljEraMk41YGzcLKX0af4q/2oWL+pWrXTm64oapduU5OWykm5ns5vjrghVsIMcmy8aYk5UfU+eMOWIp/7va0fWo42cscTzoV2K89DVtrmCGj1EHttChXPqqhuQDuSirExXYwBr9tEFtY6mYRn5oPNH/NpVN46uTZT5zXZFl/PFekUxOb65N8pJz3hMB/muo6bAQ+MxnPsN/ij0p/2to54GXN9oJaWkqF9gT0j6SxgWu5YJf4UsbZVFaVzu5+mJOOUeRp6k/9iEjfcrppxzrqUz0X/wpT9tcor/ORtQVy/CnMsI28jH3IfyMfqQ26RcveiMv8jndtOcoxSTy1OlJZeQLsvhDEuV4Y7/4yGmv64t8Q8v4ErGintprq0fbUVdsp5xil+rFNkmU80V95Kl87Ju6jK2msU1tb259x+UENRmBVgTKm/D0bfnyBmjln4KBpweecMqbYAp1q9YhTHmy6kLxyUoytFHmCbRcqCo10qs+8kiqK8/1pW3ShR3mRaScnthPuQtPKjO0Dh6pj8KEnH5R7oldvPBEXtWFs3TU5VFP5EFn9A9sSLSDbzr3aZcu5eJFD23UIfWjj7LqPMl39Tvaq5R2+NCpRB2r/Iv9Ol3AVwge8ZHTrr6K4TxP02mP9KRykle/7FDHD9MwBI6HiVnqEBFgAcotcHNh0bYozWV3Cb1aIKMtFnvaGTc5xOKmTYC6FkbltEWCl6T+KBvLkhGf6jHHBxI+sGjDK37pYj5AcUOMOuBfaoGWn9E+cxYfSBDjiUGD2umjrK8kGF+cf+JDnj7q6KY8lNCBz+gURazihg8vtmSPuoi26It8FC98jIU6fW0bsPSSIyNblFNCn/rpow5FXspqF6/yivn8h2RSXvGkX48xpnTeRTxz/dIVc/lCrnlOv9ojr8v1CFzE0Ud9t3v2EQF+IvvHf/zHiyuuuKK4613v2muIbZtHL2UNzNzILAzpYtEgstkuFs+4kKrcdUBafPvKddEffevCPxUP8ywu7G1604UfLIQHY2BjURCR8kbdkTfqEI+wJm/SI/6mvE5e7diQPfSoPacTPvwVj3J46VM/eezL6cq1SUfal2KE7rQNmSifs8/1TgMi2UKfCD2qoyfV1WZH/VGOsnQql705c+zu0xrnYGLO2bKnuvsu9H1h4CZj8Xec2xe5/eGfe47tD1IeyVYR2Ldg4nirF8J+7w4BniBY7CFuiClJgcQhnEhMiZt1GQEjYAR2icDRLo3b9jYR4CiQUwOO6BRUjB0Jx4/o0rHfkseNY323vBEwAkbg0BFwMHHoM2DE+Dk94HtoXowac0KBrIISdDqQGHFRLGoEjIAR2AEC/ppjB6Dvk0kFEbzjQNJLVG0BAScR8IscRAgJ50bACBiB7SHgYGJ712x1HhNQKOGcThkUUOgter7CgAgkIPoVfFQN/jACK0CA+am5W+dOF5462X1pNwb7ciWnGYe/5pgGR2spEVBAwfsUBAkEETGQUJ1TCHh8GuFpMwcCzMMxFE/M6vSwkZJyhP26vhx/1zYF6V35I18Xf+Dpih28OZzwsclWOgZhRS7byqP/lNFb1xd54SOJYllt5HXt4qG/iz3xH3p+fOgAePzzIOCbcB5crbUdAZ2ANXHG+cmmWPdnyGwodacUaheP8pxd7EWbOZ7YltOlwFx88JBSvbQxpnjqh6/wkZNyRDubfaovx0tb6o/a0IMPOTs5GfGRy8ecTfrRCw+pjuBTUANfLuhBFl0Q/DmivU42x3/obceHDoDHbwSMwGEioA2J4IONRZsLufpARpuN+oUWPPSpnY1HvOJRHgMc+OFDXu1x40cGHvFJBzK0RcrZoy36orGQp/JRF2X8gIckuZRH/bTDk/oguaiDskj91GNZ/ak+2aNdeCFHnZQjTj0j5fhybVGGsoIf+U+OXBfZVNe+14/3fYAenxEwAkagDYG4QbBhNW1y6iNnc1G96SlWmxJ+xI2IdsmnPkafsBNtpbxNdfQjC0Xb1GnHb/xg3AQTUPQJniinMu3io5zK0SfZnIxkyelXvVIUPqJsE15B5IKi/FOH6rKpnP5oj7p41UddPLSZziFwbCCMgBEwAvuKAAs/R96593PiBhI3DDYs6iQ2DXLxUoZUVwDRtrmk/dKdtlfKMx/yQ2PJsDQ21dmhXX3yKY5XJwHiqTOigCTyUY71VJY+2QLPNEV+8eb0gUkMMtBJglf8yqUTfxU40UY/Mvggoo06eaS0HvsOuexg4pCvvsduBPYQATYJbQos/LlAgmGLh80obhAqpxsSMvTRDiGfHqdXHcmH9MRm2YhtbWXskeYi+YlvGmcXe8iRhLvGVhdoiR/dKkuGtpzN2CYeyWJX8mCjMv2UCTQg8atNfPRRjnXxK5iibmpG4Li5271GwAgYge0gEDeMdHNoGwWyKbFxoSfq0mamnA2nKahAL/LiT2001SWrEwl0iNSn+pgcvXGM6Err0g9v3GTh0wusBBDyMcrjK4l+2sVDGxTrKlcd5Ufu5AGeqEe8uVy+wg9hM7VRdZz/oF885KZuCBx3YzOXETACRmDdCPTZYBhJbqPQhqP+dNORDO2U2wIJIQa/dMWy+nM5vsherl990eccX64N2VQurefkaIOPhA5SpNimPsZLGRlIeVU5Xxdv7jQjnjygC8xjm/TkcvTCK0K/TirUlubyT7bSftfzCBzlm91qBIyAEdgeAtoIhnrOU3AdacPDBuV0Y4qbVtSR+pTWI29a1uaatlPXJp3rq2vDb+SafKC/iaIsZSVkOKHBBm3okS5y2kTRD/GTs9FHPvhVl0xbMCAb5NKtNn3lxXWWb+qLOTbp72Mryh9i+egQB73EmDXx22wxYeHNEe11fTn+rm3oxO7c1Md3/Mn5xE3fpCeVgVf86lO9brxRpo6nrb3NxtzybfrdfxYBNgslfUVBvS4gQFr8mi9xY1L/WSufr+moXXzMzTSlc4h63WYmXs3xz1s6V2IcsQ9+BUqxHe60zjjTNtlL7cQ6PMhCqXzVeP5DuuCBH2zErzzyU6ZduslVTvnEKxs5Ptp0zcWX0xPHk+t321kEjs9WXeuLgCaj8rqboa/eOn70z2Gj7sahnRRt5tpy/uqpKndD5/hTPuzknlSibFykaccmCwX+ok9+p7qjDsmoDbtQKqP2qjP5yI1VOCWsF1Q1htTeBYxuaESAa63rDaNwZQ7FdvrqsFY7G29uI0cPPNInfupK2FW7bGl+UIfgrSPmjfqjHs0/8tie00O/9OAPwYU20JSf/tgXZSNvtBl9UFn9+E4CQ+yqHT5s0SeiTfe4+NQXc/pSOXRB0QZ1eEkQ+qNc1djjQ3p6iBws60XlizMnBzv6CQbORCUxaUlMPnKIya4FKd6w6oeHRUY3U5SXTnjihKadOinyR53wRNJNHdvSsuRTWfiQ12IT++VHqkt1eEnyU+25HD70QcqryvkP+iHlVaX8SMeGLXiUxKdc41SdnGvAgiQSDzqmJnQyvtwYp7a1ZX1cV+6LOa5BF1xyczbXltPVlS8nS1tOnjYSpLmjvGpc+CP1JWdePusaRhn1MYa+45AebPaVzfmZa8PGXLplD1zivqD2reYOJkZeOSYESRNcE5A6ib4mihu1+JAhIQ9JJ2X1UY6kxRfeyA9Pzga6U76oL5ZT+TofkEEvCVIwhZ06W+KHF1JgFYOsqqP8oE1BTZSTDHzYoU+52shF9EfKBROMcQjJtmSFla5PHCc89Kcykj3kXHgNvQ6HjJ3HPj8CWkNYZ/qQ5F72spcVf/Znf1Z8wzd8w+ma1kfPGnmP1+jUln3S4qdNI9bjkxaTiqTNET4mZt/JCVZRT1fs2ECRk39d5eBrktEY4NHxo+wIE7WjK/KrTDsysS5eckh9bDryBxnJ0aYk/krwvCx8dYTuSHW8shV5wTWVV7/8ib7Tl9MjGedGwAisDwHWHVFcz9SmXGvHm970puLNb36zmqv8dre73ZkT0TOdG6w4mJjgojFhtCGwYUSizuaRtqc81OEbQkPkCGLweU6KflFWarIpHAk84JePyutwVD+6KUsWfhJ19VWFlo/4ZCzZVITAAd2R6njhwS8FVFHGZSNgBLaDgO7566+/vvjt3/7t4jWveU3xute9rrjuuuvODOKbvumbis9+9rNV2yWXXFJ87dd+bfG+972vWouaApAzSjZUOd6Qr6t1NW4gbBgp0UaCT7zKNTGps4HppCLVobrkVO+ScyICyQdskqRL7V10DeGRnTpZ7GuTlW/CQfWcDuRI4pH+FEf6RakeeLmxIfXBL/uSU57qph1+ZCUv3lyua5Hrc5sRMALrR4CHiKc97WmVo09/+tMbHSbgeOlLX1r8+Z//ebU+EHx0WScala6083ilfm3WrXSisNnRlrYzQPogNqO4qVWNmQ/xq0u6Va/LtVE38ec2yTp9be2MpyvhE0nvPVCGyEn4Tq42cvTTpq8Uoj3KBAdRpg5/xpzaRT53rbBbd43kTxuG6MUvchL+m4yAEdgOAtzrBBJdgwhOK1iPrrzyyuqe385I+3t63F/EEhEBNjsmGMQGAWnTUb1qDB9sKCTJxU0tsF1QRB+8UJ3uC4TKBjZM7NURuuSPfKrjTduRy/kiPXX90oMsSfyq049sPA6kTyQ+4UG7bIkv6pSc+KSbHEIGXXUnEuhS4FEJJB/Iows+Uo5ki75YzvG6zQgYgXUhwH3NAwCnDXXEycPv/M7vFA996EOLRz7ykcXb3/72Ota9az/auxEtPCA2GCYZmwkJYkNq2izgQwaCT8fsalNeMSQf8MuO9MAfU26D1VN8oq6yTxvydRSf9MWDH8jIF7Xn8ibdOf7YpjHGtlxZuMDP+KnHQE8y8kW52uFnnBG72Ec5lVG/cvrr8FAgIh74dN0l79wIGIH1IsAaqq83opcEF7Tf//73L/7xH/+xWv//5m/+pnW9iDr2oXy8D4PY5Ri0waSbCO1sUHUkOeXIU1ZCDvlUrzZ2tcPfROiAR/wpbwwy6nQhSx+6IDZp/Mjxi6diLD+QpS3dpJGnr47QLf3SgR61pXJRFxs348qdMiCPHhI8EG3IK8mGcrXLpuRVjzm8KcFPO3lKtIGnyQgYgfUioLUgfr2hFzDJOYlgvcnd/+sd1cSe8aNVpvkQKCfYIOXIlZd6kGwUytkvN/KTctJXiXKOJ+qYuyx/sIMvdf7ARxLFuuRoq5OXHP1tfG39bTaiLZXr8q666uT3sZ35yTUwGYE1IMBaXJ4+nJSBw0n5NcZJeQpRrc/MU9+/566Qf7Rq4uDM6naDgJ7+d2PdVqdGgJMsfYU4tW7rMwJ9EOBU4qabbioe8IAHVH+ZwUuVZRBRnc6Sm84hcGwgjMA+IOCbeh+uosdgBNaFAIEEX4deeuml1YuV5WnZQfxlxpCr4JOJIahZxggYgVkR0Eu0sxqxciPQAYE73/nOxZOe9KRC7010EDlIFgcTB3nZPWgjsH4Eci+srt9re7hvCPjUs9sVdTDRDSdzGQEjYASMgBEwAjUIHNW0u9kIGAEjYASMgBEwAp0QcDDRCSYzGQEjYASMgBEwAnUIOJioQ8btRsAIGAEjYASMQCcEHEx0gslMRsAIGAEjYASMQB0CDibqkHG7ETACRsAIGAEj0AkBBxOdYDKTETACRsAIGAEjUIeAg4k6ZNxuBIyAETACRsAIdELAwUQnmMxkBIyAETACRsAI1CHgYKIOGbcbASNgBIyAETACnRBwMNEJJjMZASNgBIyAETACdQg4mKhDxu1GwAgYASNgBIxAJwQcTHSCyUxGwAgYASNgBIxAHQIOJuqQcbsRMAJGwAgYASPQCQEHE51gMpMRMAJGwAgYASNQh4CDiTpk3G4EjIARMAJGwAh0QsDBRCeYzGQEjIARMAJGwAjUIeBgog4ZtxsBI2AEjIARMAKdEPh/Mi1i3ZZm/+IAAAAASUVORK5CYII=;" vertex="1" parent="1">
                    <mxGeometry x="40" y="40" width="716.69" height="440" as="geometry"/>
                </mxCell>
            </root>
        </mxGraphModel>
    </diagram>
</mxfile>